<?xml version="1.0" standalone="no"?>
<!DOCTYPE svg PUBLIC "-//W3C//DTD SVG 20010904//EN"
 "http://www.w3.org/TR/2001/REC-SVG-20010904/DTD/svg10.dtd">
<svg version="1.0" xmlns="http://www.w3.org/2000/svg"
 width="1200.000000pt" height="904.000000pt" viewBox="0 0 1200.000000 904.000000"
 preserveAspectRatio="xMidYMid meet">
<metadata>
Created by potrace 1.15, written by Peter Selinger 2001-2017
</metadata>
<g transform="translate(0.000000,904.000000) scale(0.100000,-0.100000)"
fill="#000000" stroke="none">
<path d="M8536 8424 c-4 -14 -11 -120 -16 -237 -12 -254 -28 -421 -41 -425 -5
-2 -9 -10 -9 -18 0 -18 -66 -85 -100 -101 -34 -16 -81 -24 -170 -30 -41 -2
-79 -9 -84 -14 -6 -5 -54 -9 -107 -9 -97 0 -129 -5 -129 -20 0 -14 43 -21 175
-31 158 -11 263 -23 290 -33 73 -28 84 -38 125 -111 27 -47 35 -121 50 -450 5
-115 13 -220 16 -232 8 -27 30 -30 38 -5 5 17 26 354 26 425 l0 38 98 -5 c103
-5 229 -20 275 -31 15 -4 40 -19 55 -34 87 -86 92 -108 111 -556 9 -194 14
-225 36 -225 17 0 25 60 36 280 19 373 16 351 52 427 18 40 81 99 114 108 45
11 168 25 303 34 125 8 170 17 170 31 0 15 -32 20 -129 20 -53 0 -101 4 -106
9 -6 5 -44 12 -85 14 -96 6 -137 14 -178 35 -35 18 -102 99 -102 124 0 8 -4
18 -9 23 -10 10 -14 67 -30 375 -10 216 -19 280 -36 280 -23 0 -27 -31 -35
-245 -5 -115 -12 -218 -16 -228 -6 -16 -15 -18 -63 -13 -108 11 -226 25 -266
32 -38 6 -93 36 -107 58 -3 6 -18 25 -32 41 -14 17 -26 40 -26 53 0 12 -4 22
-8 22 -5 0 -12 55 -15 123 -17 319 -28 494 -33 510 -8 25 -31 21 -38 -9z m584
-921 c0 -57 -32 -145 -65 -178 -67 -67 -83 -71 -387 -101 l-58 -6 0 61 c0 34
4 61 10 61 6 0 10 9 10 21 0 22 31 72 65 103 35 32 104 56 163 56 31 0 64 5
72 10 8 5 54 10 103 10 l87 0 0 -37z"/>
<path d="M2521 8201 c-17 -27 -40 -59 -51 -71 -11 -12 -22 -31 -25 -41 -4 -11
-11 -19 -16 -19 -5 0 -13 -8 -16 -17 -8 -20 -46 -80 -65 -103 -7 -8 -36 -50
-65 -95 -29 -44 -58 -87 -65 -95 -32 -37 -59 -84 -54 -96 3 -7 1 -16 -3 -19
-5 -3 -14 -43 -21 -89 -9 -66 -15 -83 -26 -79 -8 3 -14 9 -14 13 0 5 -9 12
-20 15 -11 4 -18 10 -15 15 3 4 -6 11 -20 14 -14 4 -25 10 -25 15 0 5 -13 12
-30 16 -16 4 -30 11 -30 16 0 5 -9 9 -20 9 -11 0 -20 5 -20 10 0 6 -127 10
-360 10 l-361 0 3 -347 3 -348 30 -55 c16 -30 33 -56 37 -58 5 -2 8 -10 8 -17
0 -10 -9 -10 -42 2 -51 18 -271 14 -291 -6 -6 -6 -18 -11 -27 -11 -9 0 -25 -9
-35 -20 -10 -11 -120 -86 -244 -167 -124 -80 -238 -157 -253 -171 l-27 -25 41
-61 c23 -33 45 -63 48 -66 7 -5 110 -158 213 -316 47 -73 83 -107 171 -162
l49 -31 -29 -11 c-56 -22 -92 -42 -110 -61 -9 -10 -21 -19 -26 -19 -19 0 -99
-99 -134 -165 -20 -38 -60 -110 -89 -160 -28 -49 -72 -128 -96 -175 -24 -47
-48 -88 -54 -92 -5 -4 -6 -8 -2 -8 5 0 0 -13 -10 -30 -11 -19 -14 -33 -8 -39
6 -5 145 -72 310 -150 296 -140 301 -142 378 -145 43 -2 80 -5 82 -8 5 -5 -16
-64 -33 -95 -7 -13 -10 -23 -6 -23 3 0 1 -6 -6 -14 -22 -28 -14 -151 30 -459
l45 -308 25 5 c14 3 158 24 320 47 162 23 309 49 325 56 48 23 135 80 129 85
-3 3 2 8 11 12 13 5 15 2 9 -17 -11 -32 -6 -189 6 -201 5 -5 10 -22 10 -37 0
-15 5 -31 10 -34 6 -3 10 -13 10 -22 0 -20 58 -91 185 -228 52 -56 180 -198
231 -257 27 -31 51 -57 54 -57 3 -1 29 20 57 47 64 59 186 169 284 256 90 79
159 149 154 156 -3 4 2 13 10 20 8 7 15 18 15 24 1 6 9 29 20 51 10 22 16 43
14 47 -3 5 -1 8 3 8 5 0 17 -17 28 -37 41 -78 165 -185 252 -217 21 -7 70 -26
108 -41 39 -14 81 -30 95 -35 14 -5 50 -18 80 -30 30 -12 62 -23 70 -25 8 -2
40 -13 70 -25 30 -12 63 -23 72 -25 9 -2 26 -8 37 -14 27 -15 26 -16 41 32 7
23 19 60 26 83 23 74 65 239 70 273 4 32 4 33 -13 14 -10 -10 -14 -14 -10 -7
4 7 3 15 -3 19 -5 3 -10 0 -10 -7 0 -8 -3 -9 -8 -3 -8 12 -41 17 -62 9 -11 -4
-12 -7 -1 -13 10 -7 9 -10 -3 -14 -18 -7 -22 13 -5 30 7 7 6 12 -6 17 -9 3
-14 2 -11 -2 2 -4 -2 -18 -10 -32 -7 -14 -13 -19 -14 -12 0 7 -5 10 -12 6 -6
-4 -8 -3 -5 3 4 6 1 13 -7 16 -8 3 -13 -1 -12 -11 0 -10 -6 -16 -16 -16 -10 1
-14 -4 -11 -12 2 -7 12 -10 21 -7 9 4 14 3 10 -2 -12 -12 -121 -18 -113 -6 3
7 0 8 -9 5 -10 -4 -16 -1 -16 9 0 8 -9 17 -21 20 -16 4 -18 3 -8 -9 20 -24 -8
-16 -36 10 -16 15 -24 30 -19 37 5 9 2 10 -9 6 -10 -4 -30 7 -54 29 -20 19
-44 32 -51 29 -10 -4 -12 0 -8 11 4 11 2 15 -7 11 -13 -5 -79 82 -92 122 -9
31 -38 34 -155 18 -58 -8 -127 -16 -155 -17 -56 -1 -59 -3 -60 -33 0 -22 -2
-22 -169 -22 -136 0 -170 -3 -174 -14 -5 -15 -69 -81 -80 -82 -67 -7 -83 -5
-104 13 -13 11 -24 24 -24 29 -1 5 -2 13 -3 18 0 5 -11 11 -23 15 -14 4 -19 9
-13 13 6 5 12 19 12 32 1 13 -1 21 -4 17 -3 -3 -12 -1 -18 4 -11 9 -108 48
-175 70 -58 19 -161 68 -161 76 0 15 -30 43 -53 50 -11 4 -32 14 -46 24 -14 9
-45 30 -70 45 -25 16 -50 34 -55 41 -10 11 -43 33 -107 69 -22 12 -29 13 -40
2 -7 -8 -37 -17 -66 -21 -42 -5 -53 -4 -58 9 -3 8 -15 15 -25 15 -12 0 -19 7
-19 18 0 10 -3 22 -7 26 -8 8 -12 86 -3 86 3 0 11 9 18 21 14 22 4 41 -88 164
-45 59 -100 144 -100 154 0 4 -20 26 -44 48 -25 23 -48 55 -56 79 -7 21 -16
44 -20 49 -4 6 -10 23 -14 38 -4 16 -16 50 -28 77 -19 44 -24 49 -52 47 -69
-2 -151 85 -126 134 6 10 7 19 3 19 -4 0 3 9 15 20 12 12 22 25 22 30 0 6 9
10 20 10 11 0 20 6 20 13 0 9 3 9 9 -1 15 -24 19 24 22 238 l3 205 -22 -1
c-22 -1 -23 2 -17 60 3 34 13 96 21 139 23 114 21 135 -9 163 -59 55 -71 135
-27 176 13 12 30 23 38 24 7 2 20 11 28 21 7 10 14 13 14 7 0 -6 11 -11 25
-11 30 0 30 0 95 121 69 131 123 213 137 209 6 -2 34 24 63 59 29 35 75 88
104 118 105 112 117 129 106 150 -18 33 -12 114 9 132 10 8 20 21 23 28 2 8
24 12 62 12 45 0 61 -5 75 -21 25 -28 34 -27 121 19 41 22 123 63 182 91 66
32 108 58 111 70 3 10 13 18 23 18 11 0 37 4 59 10 22 5 56 13 75 16 19 3 50
10 69 15 19 5 38 7 42 4 4 -2 10 0 14 6 3 5 17 10 31 10 16 0 24 6 25 18 1 36
8 49 40 84 35 37 101 59 114 38 4 -6 10 -8 15 -5 5 3 11 -4 15 -14 3 -11 15
-23 26 -26 14 -5 18 -12 14 -26 -4 -12 -2 -19 7 -19 10 0 10 -2 -1 -9 -30 -19
46 -40 209 -56 30 -3 78 -12 105 -19 28 -8 67 -17 88 -20 35 -7 37 -5 37 19 0
27 9 31 38 16 9 -5 37 -15 62 -21 25 -7 54 -16 65 -21 48 -20 145 -47 161 -45
9 1 22 10 29 20 7 9 22 18 33 21 11 2 29 8 39 13 11 6 25 7 34 1 9 -4 26 -7
38 -4 15 3 22 -2 27 -20 3 -13 12 -26 19 -29 8 -3 12 -14 10 -26 -2 -11 0 -20
5 -20 4 0 11 -7 14 -16 4 -9 2 -13 -5 -8 -8 4 -9 -1 -4 -16 5 -15 4 -20 -4
-16 -18 12 -12 -9 9 -32 12 -12 33 -30 48 -39 15 -10 58 -42 96 -73 37 -30 77
-61 87 -69 26 -19 24 -27 -11 -41 -16 -7 -30 -18 -30 -25 0 -16 148 -171 160
-167 6 1 10 -2 10 -8 0 -5 5 -10 10 -10 6 0 9 6 8 13 -2 6 4 10 12 8 8 -2 21
-4 29 -5 8 -2 20 -11 27 -21 12 -17 18 -14 15 7 0 4 7 4 16 1 12 -5 14 -3 8 7
-5 9 -4 11 4 6 7 -4 9 -17 6 -29 -5 -16 -4 -18 3 -8 6 8 15 10 22 6 9 -5 11
-4 6 3 -4 7 -2 12 4 12 6 0 9 4 5 9 -3 5 -1 13 5 16 6 4 9 1 8 -6 -2 -7 5 -15
15 -17 9 -2 17 1 17 7 0 6 -5 11 -12 11 -6 0 -8 3 -5 6 4 4 14 1 23 -6 13 -11
17 -11 24 -1 4 8 10 9 13 4 4 -6 20 -9 36 -8 17 1 28 -2 25 -7 -3 -4 -2 -8 3
-9 4 0 16 -2 26 -4 10 -2 14 1 11 7 -4 7 -2 8 4 4 8 -4 12 0 12 11 0 14 2 15
9 4 5 -7 14 -10 20 -7 7 5 11 -1 11 -13 0 -12 5 -21 11 -21 5 0 7 5 4 10 -11
18 24 11 35 -7 9 -14 10 -14 7 -2 -3 9 1 16 9 16 7 0 10 -5 7 -10 -3 -6 -1 -7
5 -3 7 4 10 19 7 34 l-5 27 10 -25 c6 -14 18 -29 26 -33 11 -6 12 -12 5 -21
-8 -9 -7 -13 4 -13 8 0 15 4 15 8 0 3 10 9 23 12 20 5 20 5 5 -7 -23 -17 -23
-27 -1 -19 11 4 14 3 9 -5 -4 -7 -3 -12 3 -12 5 0 12 6 15 13 3 6 3 1 0 -13
-5 -23 -4 -24 9 -7 13 16 15 16 21 2 3 -9 2 -13 -4 -10 -5 3 -8 -4 -7 -15 2
-24 10 -25 31 -4 9 8 16 11 16 5 0 -5 -4 -13 -10 -16 -5 -3 -10 -12 -10 -18 0
-8 3 -8 8 -2 9 13 27 13 39 1 5 -5 3 -6 -4 -2 -7 4 -13 2 -13 -3 0 -6 7 -11
15 -11 8 0 15 8 15 18 0 14 2 15 10 2 7 -11 5 -19 -8 -29 -15 -12 -14 -13 11
-7 16 4 34 2 41 -3 9 -8 13 -7 13 4 0 8 -3 13 -6 11 -3 -1 -14 5 -23 16 -20
20 -10 26 10 6 8 -8 15 -9 22 -2 10 10 66 331 59 338 -6 5 -647 104 -686 105
-18 1 -33 -2 -33 -7 0 -4 -10 -9 -22 -9 -13 -1 -35 -4 -50 -6 -33 -5 -33 -5
-9 66 21 61 28 166 16 232 -4 22 -18 63 -32 90 -14 28 -24 52 -24 55 1 3 -12
32 -28 65 -17 33 -41 85 -54 115 -14 30 -41 90 -61 133 -20 42 -36 81 -36 86
0 5 -7 14 -15 21 -8 7 -15 20 -15 29 0 33 -17 46 -42 34 -35 -17 -187 -88
-243 -113 -188 -84 -345 -161 -345 -169 0 -3 -17 -25 -37 -48 -21 -23 -45 -49
-53 -59 -13 -16 -16 -12 -35 47 -11 35 -26 74 -33 86 -6 12 -12 29 -12 37 0 9
-4 16 -9 16 -6 0 -18 14 -28 31 -16 27 -84 87 -193 169 -18 14 -72 55 -119 92
-47 37 -97 75 -110 85 -13 10 -35 28 -48 41 -13 12 -28 22 -32 22 -5 0 -20 9
-34 20 l-25 20 -31 -49z"/>
<path d="M9376 6649 c-3 -8 -12 -96 -19 -195 -19 -252 -23 -257 -221 -278
-120 -12 -147 -18 -133 -32 3 -3 59 -10 124 -16 65 -5 132 -16 149 -23 54 -22
70 -75 83 -269 12 -173 16 -195 33 -178 7 7 24 196 29 337 0 17 3 24 6 18 2
-7 21 -13 41 -13 78 0 222 -88 335 -204 149 -152 215 -272 268 -482 18 -73 22
-117 22 -239 0 -130 -4 -163 -26 -249 -48 -181 -135 -334 -257 -454 -131 -129
-289 -218 -469 -264 -111 -28 -123 -29 -276 -25 -124 4 -176 9 -230 26 -96 28
-195 71 -195 84 0 6 -3 8 -6 4 -10 -10 -57 54 -71 96 -3 9 -9 17 -14 17 -5 0
-9 6 -9 14 0 7 -7 19 -15 26 -8 7 -15 23 -15 36 0 15 -6 24 -15 24 -9 0 -15
-9 -15 -24 0 -14 7 -31 15 -40 8 -8 15 -22 15 -30 0 -9 5 -16 10 -16 6 0 10
-4 10 -9 0 -12 62 -114 75 -123 5 -4 -1028 -8 -2297 -8 l-2308 0 0 -625 0
-625 40 0 40 0 0 585 0 585 495 0 495 0 0 -405 0 -405 40 0 40 0 0 405 0 405
565 0 565 0 0 -580 0 -580 45 0 45 0 0 580 0 580 530 0 530 0 0 -410 0 -410
40 0 40 0 0 410 0 410 525 0 525 0 0 -585 0 -585 35 0 35 0 0 609 0 610 93
-91 c154 -151 318 -243 522 -294 61 -15 72 -17 160 -30 60 -8 190 -8 259 0
155 19 410 114 535 199 68 46 253 235 294 300 69 107 143 276 162 367 1 3 6
30 13 60 10 49 18 114 27 218 4 53 -20 208 -49 322 -33 126 -113 296 -182 387
-48 64 -223 233 -278 268 -205 130 -439 198 -678 197 -43 -1 -78 2 -78 4 0 3
9 19 20 34 26 37 61 47 198 59 63 5 116 12 119 15 14 14 -14 20 -134 33 -198
20 -207 32 -222 292 -9 157 -21 220 -35 180z"/>
<path d="M4059 6556 c-43 -29 -79 -80 -118 -168 -59 -130 -74 -205 -166 -838
-86 -590 -130 -826 -180 -974 -45 -131 -151 -276 -244 -337 l-24 -15 34 -21
c19 -11 61 -37 93 -57 65 -39 109 -45 155 -22 39 21 106 96 135 154 46 91 115
392 167 733 l23 146 34 -24 c52 -35 113 -31 203 12 76 36 133 44 161 23 9 -7
46 -112 83 -233 36 -121 68 -225 70 -231 2 -7 -20 -28 -50 -48 -100 -69 -99
-61 0 -175 l87 -101 31 24 c49 36 74 47 130 56 56 8 143 -8 185 -36 13 -9 26
-13 29 -11 3 3 -14 41 -36 84 -45 87 -112 160 -181 196 l-45 23 -222 775
c-123 426 -221 780 -218 787 6 17 83 52 115 52 38 0 139 -52 193 -100 83 -74
71 -30 -31 106 -71 96 -174 193 -234 223 -61 29 -133 28 -179 -3z m125 -813
c47 -172 86 -314 86 -316 0 -2 -43 -23 -95 -46 -128 -56 -161 -55 -193 10 -22
44 -22 51 -12 135 23 193 104 555 120 537 4 -4 46 -149 94 -320z"/>
<path d="M8331 6558 c-60 -30 -163 -127 -233 -222 -102 -136 -114 -180 -31
-106 54 48 155 100 193 100 32 0 109 -35 115 -52 3 -7 -95 -361 -218 -787
l-222 -775 -45 -23 c-69 -36 -136 -109 -181 -196 -22 -43 -39 -81 -36 -84 3
-2 16 2 29 11 42 28 129 44 185 36 56 -9 81 -20 130 -56 l31 -24 87 101 c99
114 100 106 0 175 -30 20 -52 41 -50 48 2 6 34 110 70 231 37 121 74 226 83
233 28 21 85 13 161 -23 90 -43 151 -47 203 -12 l34 24 23 -146 c52 -341 121
-642 167 -733 29 -58 96 -133 135 -154 46 -23 90 -17 155 22 32 20 74 46 93
57 l34 21 -24 15 c-93 61 -199 206 -244 337 -50 148 -94 384 -180 974 -93 641
-107 711 -169 846 -63 135 -117 184 -202 184 -30 0 -66 -8 -93 -22z m193 -629
c32 -127 67 -317 81 -439 5 -45 2 -63 -17 -100 -32 -63 -66 -65 -193 -9 -52
23 -95 44 -95 46 0 5 169 614 175 632 3 8 8 12 10 9 3 -2 20 -65 39 -139z"/>
<path d="M5859 5922 c-112 -71 -181 -195 -226 -403 -28 -131 -25 -479 5 -609
26 -109 75 -220 122 -273 37 -43 103 -84 141 -89 27 -3 35 5 198 200 l43 52
-55 -6 c-46 -5 -64 -2 -109 19 -80 36 -136 121 -172 259 -37 144 -40 439 -5
597 l11 54 52 -108 51 -108 64 74 c34 41 65 79 68 86 7 16 -118 283 -132 283
-6 0 -31 -13 -56 -28z"/>
<path d="M5333 5918 c-20 -10 -20 -12 -7 -44 21 -49 18 -65 -28 -180 l-41
-104 -18 70 c-33 127 -86 200 -148 200 -35 0 -90 -59 -126 -135 -43 -89 -45
-109 -10 -93 55 25 115 -66 154 -232 l21 -87 -76 -174 c-122 -279 -145 -364
-124 -466 21 -101 115 -166 166 -116 22 23 50 87 60 137 6 37 6 38 -16 26 -18
-10 -25 -9 -39 4 -26 26 -19 92 19 181 l34 80 13 -65 c21 -105 55 -190 94
-234 32 -35 42 -41 79 -41 53 0 82 32 110 124 26 82 26 95 1 79 -15 -9 -23 -9
-36 2 -39 33 -96 188 -124 340 l-12 65 81 180 c45 99 89 207 97 239 23 92 5
184 -48 237 -21 21 -43 23 -76 7z"/>
<path d="M6515 5867 c-109 -86 -188 -177 -235 -271 l-40 -78 0 -357 c0 -374 4
-411 48 -496 17 -33 101 -125 115 -125 3 0 106 119 163 188 l21 26 22 -68 c20
-64 66 -147 80 -145 3 0 41 41 83 91 l76 91 -25 33 c-50 66 -53 96 -53 518 0
221 -5 410 -10 434 -6 24 -20 64 -32 90 -24 50 -99 132 -121 132 -7 0 -48 -28
-92 -63z m52 -234 c10 -25 13 -113 13 -387 l0 -355 -47 -54 c-54 -62 -62 -61
-88 7 -14 36 -16 87 -13 367 3 310 4 326 25 372 12 26 32 61 44 78 18 25 23
28 37 17 8 -7 21 -27 29 -45z"/>
<path d="M7019 5843 l-75 -88 28 -45 c16 -24 33 -60 38 -80 6 -20 10 -216 10
-467 0 -480 0 -485 67 -575 19 -27 38 -48 41 -47 4 0 42 41 84 90 l77 89 -29
47 c-38 62 -50 136 -50 300 l0 133 75 0 75 0 0 -185 c0 -205 14 -305 55 -391
46 -96 49 -96 139 7 l79 91 -20 26 c-49 67 -48 51 -53 542 -5 451 -6 467 -28
520 -21 53 -76 124 -91 118 -4 -2 -40 -40 -80 -85 l-72 -83 33 -67 c31 -63 33
-75 37 -190 l3 -123 -76 0 -76 0 0 153 c0 162 -13 245 -51 320 -22 44 -47 77
-59 77 -3 0 -40 -39 -81 -87z"/>
<path d="M5071 3027 c-6 -62 -11 -137 -11 -166 0 -62 -20 -106 -58 -124 -15
-8 -63 -17 -107 -20 -106 -8 -145 -17 -145 -32 0 -9 24 -15 73 -19 155 -14
170 -17 198 -46 34 -33 34 -36 48 -225 10 -137 20 -179 37 -162 4 3 11 61 16
129 19 244 20 247 75 276 18 10 169 31 226 32 9 0 17 6 17 14 0 16 -37 25
-140 32 -146 11 -159 27 -171 223 -11 166 -16 201 -33 201 -9 0 -16 -32 -25
-113z"/>
<path d="M7432 3053 c-7 -43 -12 -117 -12 -166 0 -74 -3 -93 -22 -122 -28 -41
-55 -55 -111 -55 -57 0 -170 -19 -181 -30 -14 -14 7 -19 121 -29 169 -16 191
-37 193 -196 1 -109 20 -231 36 -228 10 3 21 82 30 236 6 104 8 110 38 141 33
35 41 37 204 52 48 4 72 10 72 19 0 15 -40 24 -147 32 -86 6 -143 29 -143 58
0 8 -4 15 -9 15 -5 0 -12 48 -15 108 -9 153 -19 235 -32 239 -6 2 -15 -28 -22
-74z"/>
<path d="M6298 2760 c-1 -33 -2 -70 -2 -82 -1 -13 -7 -29 -13 -36 -15 -16 -16
-32 -4 -51 6 -10 5 -22 -5 -35 -19 -28 -18 -61 3 -82 14 -13 15 -18 5 -22 -32
-10 -169 -109 -210 -151 -51 -53 -92 -131 -92 -178 0 -23 -5 -33 -15 -33 -10
0 -15 -10 -15 -30 0 -20 5 -30 15 -30 13 0 15 -43 15 -325 0 -282 -2 -325 -15
-325 -10 0 -15 -10 -15 -30 0 -20 5 -30 15 -30 8 0 15 -7 15 -15 0 -8 -4 -15
-10 -15 -5 0 -10 -16 -10 -35 0 -32 2 -35 30 -35 22 0 33 -7 44 -28 23 -44 74
-90 151 -135 39 -22 72 -44 73 -49 2 -4 8 -5 13 -2 6 3 7 -5 3 -20 -3 -14 -3
-34 1 -43 4 -10 9 -34 10 -55 3 -39 25 -108 35 -108 11 0 33 74 33 112 0 21 4
41 8 44 13 7 11 52 -2 59 -10 7 114 77 138 78 7 0 11 2 9 4 -2 2 19 25 46 51
28 26 54 57 59 69 6 17 17 23 39 23 28 0 30 3 30 35 0 19 -4 35 -10 35 -5 0
-10 7 -10 15 0 8 7 15 15 15 10 0 15 10 15 30 0 20 -5 30 -15 30 -13 0 -15 43
-15 325 1 279 3 325 15 325 10 0 15 10 15 30 0 20 -5 30 -15 30 -11 0 -15 11
-15 35 0 49 -43 129 -98 183 -43 41 -174 134 -204 144 -9 3 -8 10 5 22 21 21
22 69 3 86 -12 9 -12 17 -4 35 8 19 8 28 -3 41 -14 17 -14 20 -17 122 -2 55
-4 62 -22 62 -18 0 -20 -7 -22 -60z m97 -426 c39 -25 87 -62 108 -82 43 -42
81 -107 71 -123 -4 -7 -87 -10 -255 -8 -246 4 -249 4 -249 25 0 28 48 93 101
136 45 37 138 98 149 98 3 0 37 -21 75 -46z m-119 -375 c17 -19 19 -42 22
-285 l3 -264 -70 0 -71 0 0 259 c0 246 1 260 21 285 25 32 68 35 95 5z m183
-5 c20 -25 21 -39 21 -285 l0 -259 -70 0 -70 0 0 259 c0 246 1 260 21 285 13
17 30 26 49 26 19 0 36 -9 49 -26z m-352 -14 c9 -18 13 -94 13 -277 l0 -253
-46 0 -45 0 3 263 c2 209 6 268 17 281 19 22 43 17 58 -14z m481 18 c9 -9 12
-85 12 -280 l0 -268 -40 0 -40 0 0 255 c0 261 6 305 40 305 9 0 21 -5 28 -12z
m-108 -798 c-19 -17 -63 -45 -97 -63 l-63 -32 -66 35 c-36 19 -80 47 -97 62
l-32 27 195 0 195 0 -35 -29z"/>
<path d="M8595 2758 c-2 -7 -6 -85 -10 -173 -7 -192 -15 -226 -58 -259 -31
-23 -104 -37 -267 -48 -73 -6 -25 -23 105 -39 203 -24 209 -33 221 -307 6
-146 14 -186 31 -168 3 3 10 85 15 183 14 262 21 271 233 293 143 15 160 32
43 41 -154 13 -187 20 -217 45 -39 33 -49 68 -56 204 -9 176 -16 240 -26 240
-5 0 -11 -6 -14 -12z"/>
<path d="M4026 2674 c-3 -9 -6 -50 -6 -92 -1 -42 -5 -123 -9 -180 -14 -162
-32 -178 -221 -195 -72 -7 -132 -16 -133 -22 -1 -6 47 -13 117 -18 213 -14
231 -37 242 -305 6 -151 13 -196 30 -180 2 3 9 54 14 114 25 257 28 276 48
303 36 49 70 60 196 67 64 4 119 11 122 16 7 12 -6 14 -141 27 -184 16 -198
33 -214 255 -13 172 -20 226 -31 226 -4 0 -11 -7 -14 -16z"/>
</g>
</svg>
